Jump_normalized_Motion_pl01
version=1
nRows=23
nColumns=43
inDegrees=yes
endheader
time		pelvis_tilt		pelvis_list		pelvis_rotation		pelvis_tx		pelvis_ty		pelvis_tz		hip_flexion_r		hip_adduction_r		hip_rotation_r		knee_angle_r		ankle_angle_r		subtalar_angle_r		mtp_angle_r		hip_flexion_l		hip_adduction_l		hip_rotation_l		knee_angle_l		ankle_angle_l		subtalar_angle_l		mtp_angle_l		lumbar_extension		lumbar_bending		lumbar_rotation		neck_flexion		neck_lateral_bending		neck_rotation		arm_flex_r		arm_add_r		arm_rot_r		elbow_flex_r		pro_sup_r		wrist_flex_r		wrist_dev_r		hand_finger_flex_r		arm_flex_l		arm_add_l		arm_rot_l		elbow_flex_l		pro_sup_l		wrist_flex_l		wrist_dev_l		hand_finger_flex_l		
3.794167		-0.792517		-42.158291		88.012991		0.007042		1.679979		1.548022		95.907290		-5.843597		4.655752		-119.735861		7.663497		5.967404		38.222132		89.880120		-11.527280		0.050573		-120.873905		30.172818		0.547378		7.570830		-31.367980		-3.526384		0.239824		46.918667		9.456062		-1.603487		140.004577		-3.815013		33.558015		42.253529		88.476458		-7.637422		-5.138224		-14.316209		140.847789		-5.510694		33.858079		40.553040		100.549378		-13.327813		-8.371491		-6.837303		
3.797071		0.224552		-41.363144		88.599432		0.007268		1.682162		1.542254		94.208885		-5.655908		3.840216		-119.475628		7.368037		6.071653		38.244050		88.615298		-11.923805		0.859313		-120.836699		30.282106		1.252296		8.228448		-31.830804		-2.829153		0.747766		46.212090		9.499305		-1.126708		139.883523		-3.184681		31.807158		41.428239		91.683549		-5.985834		-6.402854		-14.978531		140.358910		-5.175353		31.621626		40.555821		103.589159		-12.703915		-8.596621		-7.268976		
3.799975		0.366586		-41.126835		88.926723		0.006734		1.683156		1.537050		93.396613		-5.894162		3.850245		-119.403706		7.083089		5.937133		38.251483		87.821611		-11.856641		0.817552		-120.721142		30.003167		1.463326		8.411033		-31.561900		-2.595299		0.699075		45.105699		9.618213		-1.211478		139.611938		-3.110219		31.429891		41.420108		92.594018		-5.554771		-6.599209		-15.232864		139.865290		-5.162846		30.871022		40.814561		104.355194		-12.634060		-8.698008		-7.434279		
3.802879		0.363004		-41.120384		89.058067		0.006415		1.683664		1.532044		92.927086		-6.010283		3.926525		-119.363470		6.856102		5.938392		38.252979		87.224716		-11.831362		0.711324		-120.561391		29.844583		1.505286		8.426561		-31.057258		-2.510609		0.694753		44.747418		9.675524		-1.210815		139.418482		-3.059323		31.410608		41.445170		92.715924		-5.539290		-6.635835		-15.275574		139.629868		-5.183932		30.665946		40.811090		104.426879		-12.713049		-8.720387		-7.474879		
3.805783		0.314921		-40.841174		89.250218		0.005700		1.684791		1.526682		92.071859		-6.277812		4.035979		-119.270249		6.208444		5.904579		38.257196		86.318596		-11.710287		0.523884		-120.391193		29.534333		1.588045		8.473355		-30.820974		-2.419861		0.563947		43.495548		9.809775		-1.191501		139.046827		-3.078007		31.239668		41.595605		93.049460		-5.565435		-6.846095		-15.390486		139.049037		-5.145517		30.018428		41.082714		104.632541		-13.008590		-8.911634		-7.594558		
3.808687		0.288987		-40.602529		89.395384		0.005402		1.685748		1.521220		91.291223		-6.427135		4.080016		-119.199402		5.791098		5.792756		38.260983		85.446844		-11.680670		0.354467		-120.215223		29.280031		1.650866		8.508594		-30.540879		-2.352390		0.525232		42.665969		9.873054		-1.141793		138.695115		-3.053702		31.142628		41.665173		93.332600		-5.606387		-7.119648		-15.470724		138.550712		-5.132148		29.506743		41.232858		104.869112		-13.252243		-9.103752		-7.675272		
3.811591		0.317066		-39.782932		89.308551		0.005297		1.687827		1.515058		89.793117		-6.314844		4.084098		-119.017327		5.058146		5.474958		38.300523		83.871770		-11.953197		0.164634		-120.032610		29.000277		1.613997		9.001691		-30.939154		-2.342068		0.752350		41.509163		9.777977		-0.933141		138.394641		-2.804985		30.511525		41.200245		95.695935		-5.496987		-8.632802		-15.965765		137.786992		-4.748832		27.395741		41.274957		107.808494		-13.380478		-9.877162		-7.608173		
3.814495		0.338817		-39.440025		89.351233		0.005289		1.688685		1.509411		88.952970		-6.304161		4.059765		-118.974007		4.773114		5.310873		38.322414		82.896591		-12.148706		0.037141		-119.880971		28.826267		1.618086		9.270973		-30.773388		-2.287433		0.891985		41.189965		9.710079		-0.856274		138.119982		-2.650525		30.259354		40.880996		96.928333		-5.363013		-9.341640		-16.209487		137.328837		-4.610959		26.420357		41.146571		109.399601		-13.334432		-10.200073		-7.532804		
3.817399		0.323422		-38.987422		89.658999		0.004568		1.690233		1.503442		87.855030		-6.635982		4.062800		-118.842824		4.015115		5.109788		38.327775		81.794708		-11.914693		-0.120856		-119.640793		28.298158		1.820208		9.314070		-30.715033		-2.124996		0.682211		39.622953		9.798716		-0.921811		137.469381		-2.796116		30.140629		41.396467		97.042879		-5.359284		-9.631283		-16.304438		136.513552		-4.770834		25.901418		41.761383		109.535765		-13.686252		-10.489169		-7.667530		
3.820303		0.355371		-38.465461		89.840126		0.004205		1.691595		1.497339		86.744099		-6.786473		4.027811		-118.739982		3.497299		4.761248		38.334215		80.621947		-11.937762		-0.191812		-119.435806		27.876681		1.867467		9.394994		-30.693866		-2.009781		0.639885		38.460381		9.868217		-0.797952		136.855168		-2.809159		29.962256		41.591988		97.256973		-5.469691		-9.961090		-16.502383		135.728456		-4.791631		25.269328		42.066976		109.804985		-14.113482		-10.722807		-7.858842		
3.823207		0.462148		-37.952062		89.938813		0.004442		1.692643		1.491338		85.691349		-6.699635		3.871176		-118.678236		3.019027		4.488736		38.342462		79.515045		-12.132166		-0.204278		-119.310853		27.590628		1.803364		9.567747		-30.687441		-1.935112		0.728947		37.965580		9.860092		-0.646613		136.429374		-2.746232		29.919457		41.453531		97.705836		-5.527870		-10.334736		-16.824950		135.210919		-4.763100		24.799596		42.048795		110.419061		-14.386579		-10.912494		-8.045381		
3.826111		0.735488		-36.743758		90.016863		0.004392		1.695412		1.484395		83.667805		-6.514492		3.607863		-118.394852		2.013783		3.848892		38.362495		77.570808		-12.451614		-0.215664		-119.064981		26.959830		1.684977		10.006597		-31.487240		-1.723207		1.015403		36.453826		9.883940		-0.376883		135.888855		-2.681989		29.688421		41.414439		98.770619		-5.660236		-11.292965		-17.621574		134.336349		-4.700161		23.652019		42.382475		111.902005		-15.032627		-11.454269		-8.494035		
3.829015		0.705093		-36.290074		90.250727		0.003796		1.696587		1.478262		82.665251		-6.753945		3.566409		-118.299584		1.390595		3.631440		38.366417		76.500829		-12.298502		-0.340635		-118.823036		26.378202		1.797089		10.085733		-31.355017		-1.585338		0.902642		35.251333		9.947232		-0.449721		135.177883		-2.814308		29.774226		41.678647		98.938409		-5.589214		-11.517539		-17.794766		133.454251		-4.872901		23.336850		42.784215		112.102593		-15.324473		-11.644683		-8.660086		
3.831919		0.700795		-35.684712		90.389550		0.003346		1.697944		1.471890		81.489356		-6.897209		3.488776		-118.170142		0.646675		3.299825		38.370003		75.268731		-12.291405		-0.418791		-118.614890		25.739419		1.736242		10.180078		-31.369997		-1.493531		0.870775		33.917096		10.025958		-0.395744		134.434157		-2.921524		29.810135		41.841978		99.115915		-5.630923		-11.761612		-18.063555		132.464502		-4.973984		22.899249		43.159468		112.326709		-15.799185		-11.794549		-8.922120		
3.834823		0.730815		-34.925508		90.482291		0.003328		1.699384		1.465380		80.143267		-6.879883		3.371303		-118.046379		-0.163248		2.836148		38.373587		73.940027		-12.395538		-0.491885		-118.528411		25.018088		1.512152		10.322531		-31.559194		-1.471455		0.870090		32.477570		10.080962		-0.283598		133.709495		-3.053590		29.857367		41.927724		99.330672		-5.734477		-12.050513		-18.449153		131.450860		-5.002327		22.421833		43.616008		112.665803		-16.407804		-11.934026		-9.264592		
3.837727		0.756870		-34.333969		90.586579		0.002888		1.700671		1.459022		79.016387		-6.924478		3.279472		-117.896394		-0.981562		2.526961		38.375260		72.747835		-12.452227		-0.644207		-118.279685		24.336819		1.354769		10.437230		-31.574753		-1.356606		0.975345		31.376731		10.154607		-0.246772		132.994436		-3.159256		30.000853		41.961545		99.474051		-5.779546		-12.269918		-18.746831		130.510489		-5.147698		22.158324		43.912218		112.960672		-16.861851		-12.020724		-9.518975		
3.840631		0.716037		-33.947430		90.713324		0.002851		1.701077		1.453028		78.242769		-6.973348		3.200687		-117.879463		-1.567359		2.378720		38.374843		71.915609		-12.463841		-0.696824		-118.258271		23.862322		1.289814		10.470068		-31.347382		-1.357544		0.894927		30.773278		10.170834		-0.261510		132.308536		-3.281664		30.180818		41.901832		99.512117		-5.758890		-12.336546		-18.851838		129.720837		-5.273183		22.100577		44.040153		113.070290		-17.102131		-12.067209		-9.640562		
3.843535		0.691704		-33.236055		90.813459		0.002332		1.702686		1.446425		76.956866		-7.055447		3.139485		-117.664980		-2.730501		2.069376		38.373240		70.628470		-12.439233		-0.841748		-118.013222		22.889420		1.155422		10.528331		-31.474641		-1.272023		0.913118		29.136844		10.274647		-0.305862		131.426258		-3.479159		30.371965		42.104973		99.546372		-5.791424		-12.570367		-19.077391		128.531215		-5.530602		21.873994		44.634336		113.267600		-17.680479		-12.249068		-9.916388		
3.846439		0.678336		-32.571594		90.874038		0.002118		1.703938		1.439889		75.790825		-7.043925		3.082983		-117.487201		-3.774118		1.757878		38.369454		69.454801		-12.500090		-0.956283		-117.840356		21.923196		0.945802		10.579898		-31.539512		-1.224072		0.946186		27.758888		10.332181		-0.301726		130.558461		-3.625570		30.559732		42.198060		99.515023		-5.812075		-12.722778		-19.282982		127.420444		-5.780660		21.743627		45.078477		113.449665		-18.213464		-12.363426		-10.178298		
3.849343		0.753406		-31.526029		90.799889		0.002184		1.705972		1.432760		74.121998		-6.802772		3.023550		-117.185033		-5.136480		1.093149		38.359045		67.847983		-12.781262		-1.104841		-117.649349		20.429987		0.339423		10.745805		-31.994526		-1.176894		1.129622		25.684423		10.365407		-0.160624		129.585220		-3.731739		30.737548		42.333627		99.379780		-5.912095		-12.965883		-19.746314		126.086427		-6.081500		21.519460		45.758737		113.834932		-19.148298		-12.449053		-10.675849		
3.852247		0.812422		-30.867144		90.809966		0.002073		1.707186		1.426238		73.019586		-6.655566		2.966989		-116.945717		-6.268557		0.850686		38.349319		66.687992		-12.923977		-1.237964		-117.385740		19.394525		-0.053934		10.898353		-32.075289		-1.075429		1.287990		24.626400		10.392617		-0.090956		128.755428		-3.797812		30.987560		42.302682		99.263519		-5.887210		-13.070574		-20.079426		125.087308		-6.391701		21.571694		45.988739		114.151032		-19.643689		-12.448150		-10.984608		
3.855152		0.802637		-30.148820		90.798868		0.001976		1.708460		1.419623		71.867780		-6.581120		2.943436		-116.694610		-7.579102		0.676819		38.338200		65.551533		-13.056933		-1.251543		-117.233726		18.130571		-0.391757		11.033669		-32.198103		-1.052261		1.303413		23.266833		10.435986		-0.093864		127.821586		-3.966433		31.294888		42.420519		99.125852		-5.804108		-13.171134		-20.409294		123.947137		-6.811911		21.661512		46.355631		114.421342		-20.136481		-12.506610		-11.317407		
3.858056		0.847356		-29.324715		90.765942		0.002340		1.709667		1.412990		70.631831		-6.312814		2.928135		-116.458340		-8.963019		0.408243		38.321997		64.392269		-13.273000		-1.310207		-117.205884		16.608627		-0.945191		11.238955		-32.456732		-1.072078		1.364120		21.653467		10.462931		-0.003586		126.903100		-4.155943		31.589637		42.579761		98.913377		-5.750176		-13.246483		-20.930068		122.856023		-7.139770		21.800165		46.830607		114.735005		-20.722332		-12.519052		-11.795630		
